# File created by Blade
# Date/Time:  Thu Jan 22 19:24:19 2015
# Frame Rate: 120.000 fps
#------------------------------------------------------
:FULLY-SPECIFIED
:DEGREES
4320
root -2.784576 33.295493 -3.563233 7.464110 -5.223672 2.897114
RightUpLeg -2.928872 -5.246798 1.992380
RightLeg 2.057727 -0.000000 -0.000000
RightFoot -12.320595 -0.589610 2.832507
RightToeBase 3.683852 -0.000000 -0.000000
LeftUpLeg -3.494966 1.699273 -3.161575
LeftLeg 1.752650 -0.000000 -0.000000
LeftFoot -8.960675 1.300460 -14.832950
LeftToeBase 5.975352 -0.000000 -0.000000
Spine -7.824930 -0.038544 -1.558270
RightShoulder -19.244280 -11.618007 -28.472786
RightArm 18.375052 24.836011 36.311055
RightForeArm -8.758667 -0.000000 9.431307
RightHand 10.534826 -0.000000 12.377345
RightHandThumb1 -24.326973 -0.000000 -32.862282
LeftShoulder -23.944493 5.069256 30.957329
LeftArm 14.128104 -23.093618 -33.324822
LeftForeArm 21.359996 -0.000000 -1.356249
LeftHand -3.076445 -0.000000 -10.878164
LeftHandThumb1 -26.253704 0.000000 33.147579
Head -3.583470 5.936501 -3.512850
4321
root -2.778166 33.296028 -3.573464 7.461309 -5.245251 2.894036
RightUpLeg -2.954014 -5.266843 1.986920
RightLeg 2.070551 -0.000000 -0.000000
RightFoot -12.313632 -0.553590 2.824199
RightToeBase 3.726176 -0.000000 -0.000000
LeftUpLeg -3.515979 1.682374 -3.168800
LeftLeg 1.767751 -0.000000 -0.000000
LeftFoot -8.972251 1.330137 -14.847074
LeftToeBase 5.966450 -0.000000 -0.000000
Spine -7.815414 -0.017461 -1.531319
RightShoulder -19.233404 -11.609617 -28.495685
RightArm 18.387131 24.820422 36.319188
RightForeArm -8.789813 -0.000000 9.457500
RightHand 10.553161 -0.000000 12.385339
RightHandThumb1 -24.326973 -0.000000 -32.862282
LeftShoulder -23.940570 5.071505 30.941900
LeftArm 14.151165 -23.127110 -33.344182
LeftForeArm 21.325155 -0.000000 -1.363964
LeftHand -3.034275 -0.000000 -10.865563
LeftHandThumb1 -26.253704 0.000000 33.147579
Head -3.567449 5.932155 -3.536454
4322
root -2.772430 33.296421 -3.583997 7.455125 -5.264057 2.893239
RightUpLeg -2.973617 -5.262477 1.979937
RightLeg 2.077983 -0.000000 -0.000000
RightFoot -12.304358 -0.541960 2.835725
RightToeBase 3.722811 -0.000000 -0.000000
LeftUpLeg -3.539387 1.684053 -3.177583
LeftLeg 1.789380 -0.000000 -0.000000
LeftFoot -8.973092 1.341906 -14.867541
LeftToeBase 6.014228 -0.000000 -0.000000
Spine -7.798401 0.001175 -1.513720
RightShoulder -19.228324 -11.628819 -28.499241
RightArm 18.421085 24.827238 36.338068
RightForeArm -8.815432 0.000000 9.473589
RightHand 10.553343 -0.000000 12.397983
RightHandThumb1 -24.326973 -0.000000 -32.862282
LeftShoulder -23.924283 5.064002 30.938293
LeftArm 14.147072 -23.171261 -33.363501
LeftForeArm 21.341991 -0.000000 -1.356479
LeftHand -3.041115 -0.000000 -10.855997
LeftHandThumb1 -26.253704 0.000000 33.147579
Head -3.550444 5.934312 -3.548900
4323
root -2.766368 33.296851 -3.593838 7.449320 -5.272061 2.893568
RightUpLeg -2.989680 -5.279593 1.972141
RightLeg 2.082498 -0.000000 -0.000000
RightFoot -12.296989 -0.527117 2.816555
RightToeBase 3.732570 -0.000000 -0.000000
LeftUpLeg -3.557634 1.662089 -3.186137
LeftLeg 1.806508 -0.000000 -0.000000
LeftFoot -8.977697 1.356801 -14.875938
LeftToeBase 6.031905 -0.000000 -0.000000
Spine -7.782689 0.001932 -1.491486
RightShoulder -19.225252 -11.638038 -28.509357
RightArm 18.465006 24.827007 36.362248
RightForeArm -8.829817 0.000000 9.481195
RightHand 10.595305 -0.000000 12.390738
RightHandThumb1 -24.326973 -0.000000 -32.862282
LeftShoulder -23.922616 5.071195 30.933267
LeftArm 14.165385 -23.183660 -33.395322
LeftForeArm 21.351112 0.000000 -1.362671
LeftHand -3.043194 -0.000000 -10.847240
LeftHandThumb1 -26.253704 0.000000 33.147579
Head -3.542430 5.934945 -3.565134
4324
root -2.762037 33.297695 -3.604440 7.451978 -5.273217 2.893407
RightUpLeg -3.045508 -5.421931 1.975201
RightLeg 2.148566 -0.000000 -0.000000
RightFoot -12.303464 -0.391860 2.796236
RightToeBase 3.725587 -0.000000 -0.000000
LeftUpLeg -3.656622 1.893911 -3.216455
LeftLeg 1.959454 -0.000000 -0.000000
LeftFoot -8.981433 1.196416 -14.740732
LeftToeBase 5.957638 -0.000000 -0.000000
Spine -7.774340 0.014654 -1.483211
RightShoulder -19.227412 -11.665494 -28.495203
RightArm 18.492438 24.852561 36.380418
RightForeArm -8.873035 -0.000000 9.494446
RightHand 10.635806 -0.000000 12.366328
RightHandThumb1 -24.326973 -0.000000 -32.862282
LeftShoulder -23.914967 5.074242 30.933206
LeftArm 14.198440 -23.173634 -33.420202
LeftForeArm 21.371571 0.000000 -1.359585
LeftHand -3.046295 0.000000 -10.857900
LeftHandThumb1 -26.253704 0.000000 33.147579
Head -3.531166 5.944284 -3.551876
4325
root -2.758162 33.298461 -3.616629 7.449598 -5.278271 2.881958
RightUpLeg -3.002471 -5.101817 1.963316
RightLeg 2.024060 -0.000000 -0.000000
RightFoot -12.241925 -0.657603 2.913490
RightToeBase 3.767914 -0.000000 -0.000000
LeftUpLeg -3.705037 1.938677 -3.213096
LeftLeg 2.022028 -0.000000 -0.000000
LeftFoot -8.994714 1.158820 -14.707656
LeftToeBase 5.985003 -0.000000 -0.000000
Spine -7.750631 0.013044 -1.457084
RightShoulder -19.230726 -11.659912 -28.487889
RightArm 18.536895 24.850269 36.397825
RightForeArm -8.881466 0.000000 9.503905
RightHand 10.646909 -0.000000 12.313732
RightHandThumb1 -24.326973 -0.000000 -32.862282
LeftShoulder -23.919118 5.088739 30.925844
LeftArm 14.224273 -23.155631 -33.445039
LeftForeArm 21.370754 -0.000000 -1.355977
LeftHand -3.039313 -0.000000 -10.871147
LeftHandThumb1 -26.253704 0.000000 33.147579
Head -3.535339 5.943270 -3.546643
4326
root -2.748923 33.298550 -3.625442 7.425593 -5.274208 2.888066
RightUpLeg -3.054689 -5.377538 1.961789
RightLeg 2.138093 -0.000000 -0.000000
RightFoot -12.275904 -0.442936 2.835958
RightToeBase 3.729524 -0.000000 -0.000000
LeftUpLeg -3.706775 1.872654 -3.229613
LeftLeg 2.038189 -0.000000 -0.000000
LeftFoot -9.000156 1.217105 -14.709754
LeftToeBase 5.927695 -0.000000 -0.000000
Spine -7.711503 0.016283 -1.429506
RightShoulder -19.232160 -11.671215 -28.493586
RightArm 18.562813 24.882468 36.411530
RightForeArm -8.927261 -0.000000 9.539264
RightHand 10.638298 -0.000000 12.319145
RightHandThumb1 -24.326973 -0.000000 -32.862282
LeftShoulder -23.914521 5.101042 30.903036
LeftArm 14.253294 -23.123053 -33.478324
LeftForeArm 21.359268 -0.000000 -1.345355
LeftHand -3.020232 -0.000000 -10.854600
LeftHandThumb1 -26.253704 0.000000 33.147579
Head -3.528036 5.931570 -3.577295
4327
root -2.742336 33.299258 -3.635838 7.421752 -5.259302 2.886256
RightUpLeg -3.087540 -5.447030 1.961143
RightLeg 2.173479 -0.000000 -0.000000
RightFoot -12.277110 -0.403404 2.827309
RightToeBase 3.640846 -0.000000 -0.000000
LeftUpLeg -3.737061 1.863537 -3.236086
LeftLeg 2.063413 -0.000000 -0.000000
LeftFoot -8.994464 1.210675 -14.710529
LeftToeBase 5.950751 -0.000000 -0.000000
Spine -7.693108 -0.000499 -1.406683
RightShoulder -19.218470 -11.665952 -28.489200
RightArm 18.571138 24.876845 36.406434
RightForeArm -8.925562 -0.000000 9.554842
RightHand 10.661237 -0.000000 12.330884
RightHandThumb1 -24.326973 -0.000000 -32.862282
LeftShoulder -23.924029 5.117742 30.888578
LeftArm 14.300738 -23.103974 -33.512292
LeftForeArm 21.347121 -0.000000 -1.345484
LeftHand -3.007427 0.000000 -10.859556
LeftHandThumb1 -26.253704 0.000000 33.147579
Head -3.528017 5.930851 -3.572813
4328
root -2.734813 33.299468 -3.645959 7.409166 -5.252254 2.884979
RightUpLeg -3.099316 -5.431724 1.951390
RightLeg 2.187269 -0.000000 -0.000000
RightFoot -12.284060 -0.424582 2.856654
RightToeBase 3.694194 -0.000000 -0.000000
LeftUpLeg -3.763278 1.858220 -3.247768
LeftLeg 2.106765 -0.000000 -0.000000
LeftFoot -9.005300 1.219616 -14.670706
LeftToeBase 5.946571 -0.000000 -0.000000
Spine -7.661985 -0.015239 -1.379125
RightShoulder -19.206566 -11.653541 -28.491018
RightArm 18.598036 24.911105 36.424523
RightForeArm -9.002664 -0.000000 9.565820
RightHand 10.661125 0.000000 12.364223
RightHandThumb1 -24.326973 -0.000000 -32.862282
LeftShoulder -23.928381 5.104938 30.888396
LeftArm 14.310983 -23.059832 -33.546579
LeftForeArm 21.347711 -0.000000 -1.336526
LeftHand -2.982619 0.000000 -10.855889
LeftHandThumb1 -26.253704 0.000000 33.147579
Head -3.526119 5.948842 -3.598237
